<?xml version="1.0" encoding="UTF-8" ?>
<svg version="1.1" width="20" height="20" xmlns="http://www.w3.org/2000/svg" shape-rendering="crispEdges">
<rect x="7" y="1" width="5" height="1" fill="#FFFFFF" />
<rect x="13" y="1" width="4" height="2" fill="#FFFFFF" />
<rect x="5" y="2" width="3" height="1" fill="#FFFFFF" />
<rect x="8" y="2" width="3" height="1" fill="#663931" />
<rect x="11" y="2" width="2" height="16" fill="#FFFFFF" />
<rect x="17" y="2" width="2" height="2" fill="#FFFFFF" />
<rect x="3" y="3" width="2" height="1" fill="#FFFFFF" />
<rect x="5" y="3" width="5" height="3" fill="#663931" />
<rect x="10" y="3" width="1" height="16" fill="#FFFFFF" />
<rect x="13" y="3" width="1" height="15" fill="#FFFFFF" />
<rect x="14" y="3" width="3" height="1" fill="#9BADB7" />
<rect x="2" y="4" width="1" height="1" fill="#FFFFFF" />
<rect x="3" y="4" width="2" height="5" fill="#663931" />
<rect x="14" y="4" width="1" height="1" fill="#9BADB7" />
<rect x="16" y="4" width="2" height="1" fill="#9BADB7" />
<rect x="18" y="4" width="2" height="5" fill="#FFFFFF" />
<rect x="1" y="5" width="1" height="2" fill="#FFFFFF" />
<rect x="2" y="5" width="1" height="5" fill="#663931" />
<rect x="14" y="5" width="1" height="13" fill="#FFFFFF" />
<rect x="15" y="5" width="1" height="1" fill="#9BADB7" />
<rect x="17" y="5" width="1" height="2" fill="#9BADB7" />
<rect x="0" y="6" width="1" height="7" fill="#FFFFFF" />
<rect x="5" y="6" width="4" height="1" fill="#663931" />
<rect x="9" y="6" width="1" height="13" fill="#FFFFFF" />
<rect x="15" y="6" width="1" height="11" fill="#FFFFFF" />
<rect x="1" y="7" width="1" height="3" fill="#663931" />
<rect x="5" y="7" width="3" height="1" fill="#663931" />
<rect x="8" y="7" width="1" height="12" fill="#FFFFFF" />
<rect x="17" y="7" width="1" height="2" fill="#FFFFFF" />
<rect x="5" y="8" width="1" height="1" fill="#663931" />
<rect x="6" y="8" width="2" height="10" fill="#FFFFFF" />
<rect x="16" y="8" width="1" height="7" fill="#FFFFFF" />
<rect x="3" y="9" width="3" height="8" fill="#FFFFFF" />
<rect x="17" y="9" width="1" height="9" fill="#9BADB7" />
<rect x="18" y="9" width="1" height="1" fill="#FFFFFF" />
<rect x="1" y="10" width="2" height="4" fill="#FFFFFF" />
<rect x="18" y="10" width="1" height="7" fill="#9BADB7" />
<rect x="2" y="14" width="1" height="2" fill="#FFFFFF" />
<rect x="16" y="15" width="1" height="4" fill="#9BADB7" />
<rect x="4" y="17" width="2" height="1" fill="#FFFFFF" />
<rect x="15" y="17" width="1" height="2" fill="#9BADB7" />
<rect x="5" y="18" width="2" height="1" fill="#9BADB7" />
<rect x="7" y="18" width="1" height="1" fill="#FFFFFF" />
<rect x="11" y="18" width="4" height="1" fill="#9BADB7" />
<rect x="7" y="19" width="7" height="1" fill="#9BADB7" />
</svg>