<?xml version="1.0" encoding="UTF-8" ?>
<svg version="1.1" width="50" height="20" xmlns="http://www.w3.org/2000/svg" shape-rendering="crispEdges">
<rect x="0" y="0" width="50" height="3" fill="#083A2B" />
<rect x="0" y="3" width="24" height="1" fill="#083A2B" />
<rect x="24" y="3" width="1" height="6" fill="#FFFFFF" />
<rect x="25" y="3" width="6" height="1" fill="#083A2B" />
<rect x="31" y="3" width="1" height="5" fill="#FFFFFF" />
<rect x="32" y="3" width="3" height="1" fill="#083A2B" />
<rect x="35" y="3" width="1" height="2" fill="#FFFFFF" />
<rect x="36" y="3" width="14" height="1" fill="#083A2B" />
<rect x="0" y="4" width="6" height="16" fill="#083A2B" />
<rect x="6" y="4" width="16" height="1" fill="#9BADB7" />
<rect x="22" y="4" width="2" height="16" fill="#083A2B" />
<rect x="25" y="4" width="2" height="1" fill="#083A2B" />
<rect x="27" y="4" width="2" height="1" fill="#FFFFFF" />
<rect x="29" y="4" width="2" height="1" fill="#083A2B" />
<rect x="32" y="4" width="1" height="1" fill="#FFFFFF" />
<rect x="33" y="4" width="2" height="1" fill="#083A2B" />
<rect x="36" y="4" width="2" height="1" fill="#083A2B" />
<rect x="38" y="4" width="2" height="1" fill="#FFFFFF" />
<rect x="40" y="4" width="10" height="7" fill="#083A2B" />
<rect x="6" y="5" width="2" height="1" fill="#9BADB7" />
<rect x="8" y="5" width="12" height="1" fill="#FFFFFF" />
<rect x="20" y="5" width="2" height="1" fill="#9BADB7" />
<rect x="25" y="5" width="1" height="6" fill="#083A2B" />
<rect x="26" y="5" width="1" height="3" fill="#FFFFFF" />
<rect x="27" y="5" width="2" height="1" fill="#083A2B" />
<rect x="29" y="5" width="1" height="2" fill="#FFFFFF" />
<rect x="30" y="5" width="1" height="7" fill="#083A2B" />
<rect x="32" y="5" width="2" height="3" fill="#083A2B" />
<rect x="34" y="5" width="1" height="1" fill="#FFFFFF" />
<rect x="35" y="5" width="2" height="6" fill="#083A2B" />
<rect x="37" y="5" width="1" height="1" fill="#FFFFFF" />
<rect x="38" y="5" width="2" height="1" fill="#083A2B" />
<rect x="6" y="6" width="1" height="9" fill="#9BADB7" />
<rect x="7" y="6" width="1" height="8" fill="#FFFFFF" />
<rect x="8" y="6" width="1" height="1" fill="#9BADB7" />
<rect x="9" y="6" width="10" height="1" fill="#FFFFFF" />
<rect x="19" y="6" width="1" height="1" fill="#9BADB7" />
<rect x="20" y="6" width="1" height="8" fill="#FFFFFF" />
<rect x="21" y="6" width="1" height="9" fill="#9BADB7" />
<rect x="27" y="6" width="2" height="1" fill="#FFFFFF" />
<rect x="34" y="6" width="1" height="8" fill="#083A2B" />
<rect x="37" y="6" width="1" height="2" fill="#083A2B" />
<rect x="38" y="6" width="1" height="1" fill="#FFFFFF" />
<rect x="39" y="6" width="1" height="1" fill="#083A2B" />
<rect x="8" y="7" width="1" height="7" fill="#FFFFFF" />
<rect x="9" y="7" width="1" height="1" fill="#9BADB7" />
<rect x="10" y="7" width="8" height="1" fill="#FFFFFF" />
<rect x="18" y="7" width="1" height="1" fill="#9BADB7" />
<rect x="19" y="7" width="1" height="7" fill="#FFFFFF" />
<rect x="27" y="7" width="3" height="1" fill="#083A2B" />
<rect x="38" y="7" width="1" height="1" fill="#083A2B" />
<rect x="39" y="7" width="1" height="1" fill="#FFFFFF" />
<rect x="9" y="8" width="1" height="6" fill="#FFFFFF" />
<rect x="10" y="8" width="1" height="1" fill="#9BADB7" />
<rect x="11" y="8" width="6" height="1" fill="#FFFFFF" />
<rect x="17" y="8" width="1" height="1" fill="#9BADB7" />
<rect x="18" y="8" width="1" height="6" fill="#FFFFFF" />
<rect x="26" y="8" width="1" height="3" fill="#083A2B" />
<rect x="27" y="8" width="2" height="1" fill="#FFFFFF" />
<rect x="29" y="8" width="1" height="2" fill="#083A2B" />
<rect x="31" y="8" width="1" height="4" fill="#083A2B" />
<rect x="32" y="8" width="1" height="1" fill="#FFFFFF" />
<rect x="33" y="8" width="1" height="12" fill="#083A2B" />
<rect x="37" y="8" width="2" height="1" fill="#FFFFFF" />
<rect x="39" y="8" width="1" height="2" fill="#083A2B" />
<rect x="10" y="9" width="1" height="5" fill="#FFFFFF" />
<rect x="11" y="9" width="1" height="1" fill="#9BADB7" />
<rect x="12" y="9" width="4" height="1" fill="#FFFFFF" />
<rect x="16" y="9" width="1" height="1" fill="#9BADB7" />
<rect x="17" y="9" width="1" height="5" fill="#FFFFFF" />
<rect x="24" y="9" width="1" height="3" fill="#083A2B" />
<rect x="27" y="9" width="2" height="2" fill="#083A2B" />
<rect x="32" y="9" width="1" height="4" fill="#083A2B" />
<rect x="37" y="9" width="2" height="3" fill="#083A2B" />
<rect x="11" y="10" width="1" height="4" fill="#FFFFFF" />
<rect x="12" y="10" width="1" height="1" fill="#9BADB7" />
<rect x="13" y="10" width="2" height="1" fill="#FFFFFF" />
<rect x="15" y="10" width="1" height="1" fill="#9BADB7" />
<rect x="16" y="10" width="1" height="4" fill="#FFFFFF" />
<rect x="29" y="10" width="1" height="6" fill="#FFFFFF" />
<rect x="39" y="10" width="1" height="5" fill="#FFFFFF" />
<rect x="12" y="11" width="1" height="3" fill="#FFFFFF" />
<rect x="13" y="11" width="2" height="1" fill="#9BADB7" />
<rect x="15" y="11" width="1" height="3" fill="#FFFFFF" />
<rect x="25" y="11" width="3" height="1" fill="#FFFFFF" />
<rect x="28" y="11" width="1" height="9" fill="#083A2B" />
<rect x="35" y="11" width="2" height="1" fill="#FFFFFF" />
<rect x="40" y="11" width="1" height="1" fill="#FFFFFF" />
<rect x="41" y="11" width="9" height="9" fill="#083A2B" />
<rect x="13" y="12" width="2" height="2" fill="#FFFFFF" />
<rect x="24" y="12" width="1" height="3" fill="#FFFFFF" />
<rect x="25" y="12" width="3" height="3" fill="#083A2B" />
<rect x="30" y="12" width="2" height="1" fill="#FFFFFF" />
<rect x="35" y="12" width="2" height="1" fill="#083A2B" />
<rect x="37" y="12" width="1" height="4" fill="#FFFFFF" />
<rect x="38" y="12" width="1" height="8" fill="#083A2B" />
<rect x="40" y="12" width="1" height="3" fill="#083A2B" />
<rect x="30" y="13" width="2" height="7" fill="#083A2B" />
<rect x="32" y="13" width="1" height="3" fill="#FFFFFF" />
<rect x="35" y="13" width="2" height="1" fill="#FFFFFF" />
<rect x="7" y="14" width="14" height="1" fill="#9BADB7" />
<rect x="34" y="14" width="1" height="1" fill="#FFFFFF" />
<rect x="35" y="14" width="2" height="1" fill="#083A2B" />
<rect x="6" y="15" width="16" height="5" fill="#083A2B" />
<rect x="24" y="15" width="1" height="5" fill="#083A2B" />
<rect x="25" y="15" width="3" height="1" fill="#FFFFFF" />
<rect x="34" y="15" width="1" height="5" fill="#083A2B" />
<rect x="35" y="15" width="2" height="1" fill="#FFFFFF" />
<rect x="39" y="15" width="1" height="5" fill="#083A2B" />
<rect x="40" y="15" width="1" height="1" fill="#FFFFFF" />
<rect x="25" y="16" width="3" height="4" fill="#083A2B" />
<rect x="29" y="16" width="1" height="4" fill="#083A2B" />
<rect x="32" y="16" width="1" height="4" fill="#083A2B" />
<rect x="35" y="16" width="3" height="4" fill="#083A2B" />
<rect x="40" y="16" width="1" height="4" fill="#083A2B" />
</svg>